<svg xmlns="http://www.w3.org/2000/svg" xmlns:xlink="http://www.w3.org/1999/xlink" xmlns:sketch="http://www.bohemiancoding.com/sketch/ns" viewBox="0 0 100 100" version="1.1" x="0px" y="0px"><title>4-instagram</title><desc>Created with Sketch.</desc><g stroke="none" stroke-width="1" fill="none" fill-rule="evenodd" sketch:type="MSPage"><path d="M49.6672536,94.5570759 C40.8246416,94.5570759 31.9820297,94.5823744 23.1396416,94.5499117 C14.311358,94.517449 7.10867147,88.6703595 5.38053714,80.1389415 C5.12329833,78.8695386 5.02188042,77.5484192 5.02031326,76.2508072 C4.99747744,58.6031953 4.99389535,40.9555833 5.00956699,23.3079714 C5.01762669,14.3753595 10.8022536,7.15476244 19.3690446,5.39506095 C20.673373,5.12707588 22.0329998,5.0229714 23.3671043,5.02095647 C40.9775521,4.99722513 58.5879998,4.9940908 76.1982237,5.00931468 C86.7105371,5.01826991 94.5403133,12.8207326 94.5517312,23.3115535 C94.5709849,40.9591654 94.5712088,58.6070012 94.5517312,76.2546132 C94.5400894,86.743643 86.7080745,94.536255 76.1946416,94.5541654 C67.3522536,94.5691654 58.5096416,94.5572998 49.6672536,94.5570759 L49.6672536,94.5570759 Z M76.3865073,43.0842401 C78.1685968,51.5408818 76.8618058,59.3341654 71.6306118,66.2428968 C66.3897909,73.1639415 59.3462834,76.8931207 50.6785222,77.2477475 C42.8386715,77.5685684 35.9769551,74.9258818 30.4193431,69.385061 C23.0854625,62.0733445 20.8394924,53.1738669 22.9012088,43.0909565 L15.2585968,43.0909565 L15.2585968,44.2546878 C15.2585968,55.4849863 15.3253133,66.7159565 15.2214327,77.9451356 C15.1862834,81.7237923 17.8652386,84.2489415 21.4809103,84.238643 C40.2477013,84.1851356 59.0147162,84.2153595 77.7817312,84.212449 C81.7650148,84.2120012 84.0508356,81.9422998 84.0519551,77.9910311 C84.0550894,66.7607326 84.0530745,55.5304341 84.0530745,44.3001356 L84.0530745,43.0842401 L76.3865073,43.0842401 L76.3865073,43.0842401 Z M66.9206118,49.7489415 C66.8740446,40.178046 59.1154625,32.4803595 49.565164,32.5296132 C40.0652386,32.5784192 32.3277013,40.3567027 32.3720297,49.8134192 C32.4170297,59.3675236 40.1962088,67.0797624 49.7418058,67.0329714 C59.2453133,66.9866281 66.9667312,59.2179714 66.9206118,49.7489415 L66.9206118,49.7489415 Z M84.0494924,24.1584938 C84.0494924,23.1143147 84.0685222,22.0694639 84.0459103,21.0255087 C83.9800894,17.968643 81.610761,15.5742401 78.5626267,15.5205087 C76.4747162,15.4835684 74.3850148,15.4835684 72.2968804,15.5202848 C69.2592685,15.5737923 66.8597162,17.9791654 66.8053133,21.0275236 C66.7679252,23.1154341 66.7636715,25.2055833 66.8082237,27.2932699 C66.8718058,30.2670759 69.2747162,32.6845386 72.2427013,32.7523744 C74.3675521,32.8009565 76.4953133,32.8016281 78.620164,32.7525983 C81.6029252,32.683643 83.9702386,30.2764789 84.0441192,27.2914789 C84.0698655,26.2477475 84.0481491,25.2028968 84.0494924,24.1584938 L84.0494924,24.1584938 Z" fill="#000000" sketch:type="MSShapeGroup"></path></g></svg>