<svg xmlns="http://www.w3.org/2000/svg" xmlns:xlink="http://www.w3.org/1999/xlink" version="1.1" x="0px" y="0px" viewBox="0 0 100 125" enable-background="new 0 0 100 100" xml:space="preserve"><g><g><path fill="none" d="M76.472,28.952h0.104c2.325,0,4.219-1.894,4.219-4.219V12.226c0-2.325-1.894-4.219-4.219-4.219h-0.104    c-2.33,0-4.219,1.894-4.219,4.219v12.506C72.253,27.058,74.142,28.952,76.472,28.952z"/><path fill="none" d="M23.417,28.952h0.106c2.323,0,4.219-1.894,4.219-4.219V12.226c0-2.325-1.897-4.219-4.219-4.219h-0.106    c-2.328,0-4.217,1.894-4.217,4.219v12.506C19.2,27.058,21.089,28.952,23.417,28.952z"/><path fill="none" d="M10.624,87.774c0,0.759,0.643,1.407,1.407,1.407h75.938c0.764,0,1.407-0.648,1.407-1.407V38.347H10.624    V87.774z"/><path d="M87.969,13.516h-4.362v-1.289c0-3.867-3.164-7.034-7.031-7.034h-0.104c-3.867,0-7.031,3.166-7.031,7.034v1.289H30.554    v-1.289c0-3.867-3.164-7.034-7.031-7.034h-0.106c-3.865,0-7.031,3.166-7.031,7.034v1.289h-4.354C8.164,13.516,5,16.679,5,20.547    v67.226c0,3.868,3.164,7.034,7.031,7.034h75.938c3.867,0,7.031-3.166,7.031-7.034V20.547C95,16.679,91.836,13.516,87.969,13.516z     M72.253,12.226c0-2.325,1.889-4.219,4.219-4.219h0.104c2.325,0,4.219,1.894,4.219,4.219v12.506c0,2.325-1.894,4.219-4.219,4.219    h-0.104c-2.33,0-4.219-1.894-4.219-4.219V12.226z M19.2,12.226c0-2.325,1.889-4.219,4.217-4.219h0.106    c2.323,0,4.219,1.894,4.219,4.219v12.506c0,2.325-1.897,4.219-4.219,4.219h-0.106c-2.328,0-4.217-1.894-4.217-4.219V12.226z     M89.376,87.774c0,0.759-0.644,1.407-1.407,1.407H12.031c-0.764,0-1.407-0.648-1.407-1.407V38.347h78.752V87.774z"/></g></g><text x="0" y="115" fill="#000000" font-size="5px" font-weight="bold" font-family="'Helvetica Neue', Helvetica, Arial-Unicode, Arial, Sans-serif">Created by Valeriy</text><text x="0" y="120" fill="#000000" font-size="5px" font-weight="bold" font-family="'Helvetica Neue', Helvetica, Arial-Unicode, Arial, Sans-serif">from the Noun Project</text></svg>