<svg xmlns="http://www.w3.org/2000/svg" xmlns:xlink="http://www.w3.org/1999/xlink" version="1.1" x="0px" y="0px" viewBox="0 0 110 137.5" enable-background="new 0 0 110 110" xml:space="preserve"><g><path d="M55,12.448c-23.463,0-42.552,19.089-42.552,42.552c0,14.179,7.029,27.379,18.804,35.312   c0.917,0.618,2.159,0.375,2.776-0.541s0.375-2.158-0.541-2.775c-1.71-1.152-3.296-2.438-4.777-3.82l0.854-0.854l0,0l4.596-4.597   l-1.886-1.886l-2.297,2.297l-2.3,2.3l-0.855,0.855c-6.296-6.745-10.009-15.572-10.333-24.957h1.209h3.25h3.25v-2.667h-3.25h-3.25   h-1.216c0.33-9.624,4.199-18.36,10.35-24.949l0.839,0.84l0,0l4.597,4.596l1.886-1.886l-4.596-4.596l0,0l-0.84-0.84   c6.588-6.151,15.324-10.021,24.948-10.351v1.217v3.25v3.25h2.668v-3.25v-3.25v-1.217c9.624,0.33,18.36,4.199,24.948,10.35   l-0.864,0.864l0,0l-4.596,4.596l1.886,1.886l4.597-4.596l0,0l0.863-0.864c6.151,6.588,10.021,15.325,10.35,24.949h-1.216h-3.25   h-3.25v2.667h3.25h3.25h1.209c-0.324,9.385-4.037,18.213-10.333,24.958l-3.157-3.157H80.02l-2.271-2.271l-1.886,1.887l4.597,4.596   l0,0l0.829,0.829c-1.48,1.381-3.066,2.668-4.776,3.82c-0.916,0.617-1.158,1.859-0.541,2.775c0.386,0.573,1.018,0.883,1.66,0.883   c0.384,0,0.772-0.11,1.115-0.342C90.522,82.379,97.552,69.178,97.552,55C97.552,31.537,78.463,12.448,55,12.448z"/><path d="M59.934,54.35c-0.022-0.159-0.05-0.315-0.089-0.469l-4.591-24.239L50.18,53.782c-0.043,0.156-0.074,0.314-0.1,0.476   l-0.077,0.364l0.034,0c-0.009,0.11-0.037,0.214-0.038,0.327c-0.025,2.641,2.191,4.803,4.953,4.833   c2.764,0.028,5.021-2.093,5.047-4.733c0.001-0.112-0.024-0.218-0.031-0.329l0.035,0L59.934,54.35z M57.285,57.355   c-1.303,1.261-3.38,1.227-4.641-0.074c-1.261-1.303-1.228-3.378,0.073-4.64c1.302-1.261,3.38-1.226,4.64,0.075   C58.618,54.018,58.585,56.095,57.285,57.355z"/></g><text x="0" y="125" fill="#000000" font-size="5px" font-weight="bold" font-family="'Helvetica Neue', Helvetica, Arial-Unicode, Arial, Sans-serif">Created by Trevor Dsouza</text><text x="0" y="130" fill="#000000" font-size="5px" font-weight="bold" font-family="'Helvetica Neue', Helvetica, Arial-Unicode, Arial, Sans-serif">from the Noun Project</text></svg>