<svg xmlns="http://www.w3.org/2000/svg" xmlns:xlink="http://www.w3.org/1999/xlink" version="1.1" x="0px" y="0px" viewBox="0 0 100 125" enable-background="new 0 0 100 100" xml:space="preserve"><g><path d="M94.647,41.966L84.06,46.969l-0.016-0.016c0,0-9.491,0.333-17.38,3.682c-2.386,1.015-4.654,2.317-6.677,3.65l-7.445-22.686   c-0.013-0.033-0.352-0.865-1.163-1.033l-16.713-2.406l0.004-11.184l-0.025-0.202h-4.696v10.489l-16.507-2.543   c-0.912,0-1.325,1.034-1.343,1.081L0.708,60.376c-0.052,0.16-0.067,0.341-0.021,0.692c0.028,0.168,0.09,0.336,0.245,0.607   c0.095,0.131,0.217,0.25,0.333,0.333c0.049,0.058,4.995,5.633,12.181,5.633c7.324,0,12.13-5.579,12.144-5.603   c0.145-0.102,0.266-0.222,0.429-0.459c0.103-0.187,0.165-0.35,0.217-0.651c0.013-0.218-0.003-0.393-0.088-0.646L15.7,28.12   l14.249,2.016v47.67H20.68v4.699h23.022v-4.699h-9.062l0.026-46.775l14.514,2.227L38.415,66.165   c-0.051,0.159-0.067,0.34-0.021,0.69c0.028,0.169,0.09,0.338,0.246,0.607c0.095,0.132,0.217,0.252,0.333,0.334   c0.049,0.058,4.996,5.634,12.182,5.634c7.323,0,12.129-5.58,12.143-5.604c0.145-0.103,0.266-0.221,0.429-0.459   c0.104-0.187,0.163-0.35,0.218-0.65c0.013-0.217-0.003-0.394-0.089-0.646l-2.259-6.885c2.897-1.215,5.309-1.732,5.309-1.732   s-2.874,5.003-1.777,8.521c0.363,1.196,1.139,1.813,1.775,2.124c0.292-1.416,0.898-3.648,2.084-5.564   c1.383-2.234,2.533-3.084,2.582-3.118c0.377-0.271,0.885-0.152,1.13,0.282c0.247,0.437,0.137,1.01-0.237,1.281   c-0.021,0.023-0.957,0.742-2.133,2.639c-1.344,2.173-1.85,4.915-1.984,5.828c0.281,0.554,0.713,1.219,1.323,1.673   c0.366,0.279,0.726,0.36,1.046,0.354c0.21-1.225,0.597-2.79,1.301-4.154c1.01-1.959,1.896-2.678,1.994-2.755   c0.374-0.294,0.884-0.181,1.137,0.24c0.256,0.424,0.168,1-0.196,1.281c-0.028,0.029-0.708,0.615-1.521,2.189   c-0.532,1.038-0.858,2.255-1.05,3.275c0.321,0.537,0.827,1.211,1.411,1.391c2.259,0.693,3.469-1.641,3.469-1.641l1.519-2.977   c0,0,2.303,0.271,3.788-0.474c4.232-1.839,8.112-8.459,8.841-9.774l7.86-3.711L94.647,41.966z M22.613,59.314H4.282l9.165-28.731   L22.613,59.314z M41.988,65.102l9.166-28.73l6.283,19.695c-3.445,2.55-5.697,4.779-5.697,4.779s-1.323,1.513-0.653,2.455   c0.868,1.241,1.845,0.411,2.476,0.083c0.625-0.315,2.215-1.397,5.279-2.915l1.479,4.633H41.988z"/></g><text x="0" y="115" fill="#000000" font-size="5px" font-weight="bold" font-family="'Helvetica Neue', Helvetica, Arial-Unicode, Arial, Sans-serif">Created by Luis Prado</text><text x="0" y="120" fill="#000000" font-size="5px" font-weight="bold" font-family="'Helvetica Neue', Helvetica, Arial-Unicode, Arial, Sans-serif">from the Noun Project</text></svg>