<svg xmlns:dc="http://purl.org/dc/elements/1.1/" xmlns:cc="http://creativecommons.org/ns#" xmlns:rdf="http://www.w3.org/1999/02/22-rdf-syntax-ns#" xmlns:svg="http://www.w3.org/2000/svg" xmlns="http://www.w3.org/2000/svg" xmlns:sodipodi="http://sodipodi.sourceforge.net/DTD/sodipodi-0.dtd" xmlns:inkscape="http://www.inkscape.org/namespaces/inkscape" viewBox="0 0 32 40.00000125" version="1.1" x="0px" y="0px"><g transform="translate(0,-1020.3622)"><path style="color:#000000;font-style:normal;font-variant:normal;font-weight:normal;font-stretch:normal;font-size:medium;line-height:normal;font-family:sans-serif;text-indent:0;text-align:start;text-decoration:none;text-decoration-line:none;text-decoration-style:solid;text-decoration-color:#000000;letter-spacing:normal;word-spacing:normal;text-transform:none;direction:ltr;block-progression:tb;writing-mode:lr-tb;baseline-shift:baseline;text-anchor:start;white-space:normal;clip-rule:nonzero;display:inline;overflow:visible;visibility:visible;opacity:1;isolation:auto;mix-blend-mode:normal;color-interpolation:sRGB;color-interpolation-filters:linearRGB;solid-color:#000000;solid-opacity:1;fill:#000000;fill-opacity:1;fill-rule:nonzero;stroke:none;stroke-width:1;stroke-linecap:round;stroke-linejoin:round;stroke-miterlimit:0;stroke-dasharray:none;stroke-dashoffset:0.5;stroke-opacity:1;color-rendering:auto;image-rendering:auto;shape-rendering:auto;text-rendering:auto;enable-background:accumulate" d="M 16 1 C 14.941094 1 14 1.7559969 14 2.7792969 C 14 2.8549967 14.016924 2.9263774 14.027344 3 L 12.5 3 A 0.50004997 0.50004997 0 0 0 12 3.5 L 12 4.0058594 A 0.50005 0.50005 0 0 0 11.921875 4 L 11.785156 4 L 7.5 4 L 5.5 4 A 0.50005 0.50005 0 0 0 5 4.5 L 5 30.5 A 0.50005 0.50005 0 0 0 5.5 31 L 26.5 31 A 0.50005 0.50005 0 0 0 27 30.5 L 27 4.5 A 0.50005 0.50005 0 0 0 26.5 4 L 24.535156 4 L 20.199219 4 L 20 4 L 20 3.5 A 0.50004997 0.50004997 0 0 0 19.5 3 L 17.972656 3 C 17.983082 2.9263653 18 2.8550263 18 2.7792969 C 18 1.7559969 17.058899 1 16 1 z M 16 2 C 16.597941 2 17 2.3896969 17 2.7792969 C 17 2.8762969 16.977264 2.9685406 16.933594 3.0566406 C 16.912104 3.0996406 16.885062 3.1436469 16.851562 3.1855469 A 0.50005 0.50005 0 0 0 17.316406 4 L 19 4 L 19 5 L 13 5 L 13 4 L 14.681641 4 A 0.50005 0.50005 0 0 0 15.148438 3.1855469 C 15.115597 3.1445469 15.088336 3.1005406 15.066406 3.0566406 C 15.022765 2.9686406 15 2.8766969 15 2.7792969 C 15 2.3896969 15.402046 2 16 2 z M 12 4.9941406 L 12 5.5 A 0.50004997 0.50004997 0 0 0 12.5 6 L 19.5 6 A 0.50004997 0.50004997 0 0 0 20 5.5 L 20 5 L 20.25 5 L 24 5 L 24 24 L 20.5 24 A 0.50005 0.50005 0 0 0 20 24.5 L 20 28 L 8 28 L 8 5 L 11.75 5 L 11.921875 5 A 0.50005 0.50005 0 0 0 12 4.9941406 z M 6 5 L 7 5 L 7 28.5 A 0.50005 0.50005 0 0 0 7.5 29 L 20.373047 29 A 0.50005 0.50005 0 0 0 20.433594 28.996094 A 0.50005 0.50005 0 0 0 20.853516 28.855469 L 24.853516 24.853516 A 0.50005 0.50005 0 0 0 24.998047 24.464844 A 0.50005 0.50005 0 0 0 25 24.412109 L 25 5 L 26 5 L 26 30 L 6 30 L 6 5 z M 12.357422 8.0019531 A 0.50005 0.50005 0 0 0 12.017578 8.1601562 L 10.462891 9.7792969 L 9.8671875 9.1582031 A 0.50075835 0.50075835 0 1 0 9.1445312 9.8515625 L 10.101562 10.847656 A 0.50005 0.50005 0 0 0 10.824219 10.847656 L 12.738281 8.8535156 A 0.50005 0.50005 0 0 0 12.357422 8.0019531 z M 14.441406 9 A 0.50005 0.50005 0 0 0 14.492188 10 L 22.492188 10 A 0.50005 0.50005 0 1 0 22.492188 9 L 14.492188 9 A 0.50005 0.50005 0 0 0 14.441406 9 z M 12.357422 13.001953 A 0.50005 0.50005 0 0 0 12.017578 13.160156 L 10.462891 14.779297 L 9.8671875 14.158203 A 0.50075835 0.50075835 0 1 0 9.1445312 14.851562 L 10.101562 15.847656 A 0.50005 0.50005 0 0 0 10.824219 15.847656 L 12.738281 13.853516 A 0.50005 0.50005 0 0 0 12.357422 13.001953 z M 14.441406 14 A 0.50005 0.50005 0 0 0 14.492188 15 L 22.492188 15 A 0.50005 0.50005 0 1 0 22.492188 14 L 14.492188 14 A 0.50005 0.50005 0 0 0 14.441406 14 z M 10.5 18 C 9.677646 18 9 18.6777 9 19.5 C 9 20.3224 9.677646 21 10.5 21 C 11.322354 21 12 20.3224 12 19.5 C 12 18.6777 11.322354 18 10.5 18 z M 10.5 19 C 10.785656 19 11 19.2144 11 19.5 C 11 19.7857 10.785656 20 10.5 20 C 10.214344 20 10 19.7857 10 19.5 C 10 19.2144 10.214344 19 10.5 19 z M 14.441406 19 A 0.50005 0.50005 0 0 0 14.492188 20 L 22.492188 20 A 0.50005 0.50005 0 1 0 22.492188 19 L 14.492188 19 A 0.50005 0.50005 0 0 0 14.441406 19 z M 10.5 23 C 9.677646 23 9 23.6777 9 24.5 C 9 25.3224 9.677646 26 10.5 26 C 11.322354 26 12 25.3224 12 24.5 C 12 23.6777 11.322354 23 10.5 23 z M 10.5 24 C 10.785656 24 11 24.2144 11 24.5 C 11 24.7857 10.785656 25 10.5 25 C 10.214344 25 10 24.7857 10 24.5 C 10 24.2144 10.214344 24 10.5 24 z M 14.449219 24 A 0.50004997 0.50004997 0 0 0 14.5 25 L 18.5 25 A 0.50004997 0.50004997 0 1 0 18.5 24 L 14.5 24 A 0.50004997 0.50004997 0 0 0 14.449219 24 z M 21 25 L 23.292969 25 L 21 27.292969 L 21 25 z " transform="translate(0,1020.3622)"/></g><text x="0" y="47.000001" fill="#000000" font-size="5px" font-weight="bold" font-family="'Helvetica Neue', Helvetica, Arial-Unicode, Arial, Sans-serif">Created by Chameleon Design</text><text x="0" y="52.000001" fill="#000000" font-size="5px" font-weight="bold" font-family="'Helvetica Neue', Helvetica, Arial-Unicode, Arial, Sans-serif">from the Noun Project</text></svg>