<svg xmlns="http://www.w3.org/2000/svg" xmlns:xlink="http://www.w3.org/1999/xlink" version="1.1" x="0px" y="0px" viewBox="0 0 24 30" style="enable-background:new 0 0 24 24;" xml:space="preserve"><style type="text/css">
	.st0{display:none;}
	.st1{display:inline;}
	.st2{opacity:0.22;}
	.st3{opacity:0.33;fill:#010101;}
	.st4{opacity:0.1;fill:#010101;}
	.st5{display:none;opacity:0.3;}
	.st6{display:inline;opacity:0.22;}
	.st7{opacity:0.64;fill:#010101;}
	.st8{display:inline;opacity:0.1;fill:#010101;}
	.st9{display:none;opacity:0.55;}
	.st10{display:inline;opacity:0.33;fill:#B7B7B8;}
	.st11{display:none;opacity:0.15;fill:#010101;}
	.st12{fill:#010101;}
	.st13{display:inline;opacity:0.29;}
	.st14{display:inline;opacity:0.29;fill:#010101;}
	.st15{fill:#716567;}
	.st16{display:inline;fill:#716567;}
	.st17{display:none;opacity:0.53;fill:#010101;}
	.st18{display:inline;opacity:0.31;}
	.st19{fill:#FFFFFF;}
	.st20{display:inline;fill:#FFFFFF;}
	.st21{display:none;opacity:0.35;}
	
		.st22{display:none;opacity:0.43;fill:none;stroke:#000000;stroke-width:2;stroke-linecap:round;stroke-linejoin:round;stroke-miterlimit:10;}
	.st23{fill:none;stroke:#000000;stroke-width:2;stroke-linecap:round;stroke-miterlimit:10;}
	.st24{fill:none;stroke:#000000;stroke-width:2;stroke-miterlimit:10;}
</style><g class="st0"><g class="st1"><g><g><g><g class="st2"><rect class="st3" width="24" height="24"/></g></g><circle class="st4" cx="12" cy="12" r="10"/><path class="st4" d="M20,21H4c-0.5,0-1-0.5-1-1V4c0-0.5,0.5-1,1-1h16c0.5,0,1,0.5,1,1v16C21,20.5,20.5,21,20,21z"/><path class="st4" d="M18,22H6c-0.6,0-1-0.4-1-1V3c0-0.6,0.4-1,1-1h12c0.6,0,1,0.4,1,1v18C19,21.6,18.6,22,18,22z"/><path class="st4" d="M2,18L2,6c0-0.6,0.4-1,1-1l18,0c0.6,0,1,0.4,1,1l0,12c0,0.6-0.4,1-1,1L3,19C2.4,19,2,18.6,2,18z"/></g></g></g></g><path d="M9,3v5H3v13h2v-6h3v6h1h12V3H9z M8,13H5v-3h3V13z M14,18h-3v-3h3V18z M14,13h-3v-3h3V13z M14,8h-3V5h3V8z M19,18h-3v-3h3V18  z M19,13h-3v-3h3V13z M19,8h-3V5h3V8z"/><text x="0" y="39" fill="#000000" font-size="5px" font-weight="bold" font-family="'Helvetica Neue', Helvetica, Arial-Unicode, Arial, Sans-serif">Created by Kenneth Chua</text><text x="0" y="44" fill="#000000" font-size="5px" font-weight="bold" font-family="'Helvetica Neue', Helvetica, Arial-Unicode, Arial, Sans-serif">from the Noun Project</text></svg>