<svg xmlns="http://www.w3.org/2000/svg" xmlns:xlink="http://www.w3.org/1999/xlink" version="1.1" x="0px" y="0px" viewBox="0 0 100 125" enable-background="new 0 0 100 100" xml:space="preserve"><g><path d="M89.951,35.048C79.279,24.376,65.092,18.499,50,18.499s-29.279,5.877-39.951,16.549l-1.061,1.061l12.728,12.728   l1.061-1.061c6.559-6.559,15.071-10.449,24.223-11.15v-3.009c-9.459,0.672-18.295,4.5-25.265,10.996l-8.489-8.489   c2.696-2.553,5.619-4.782,8.712-6.694l2.492,4.319l2.599-1.499l-2.494-4.322c3.231-1.753,6.626-3.17,10.15-4.215l1.293,4.828   l2.897-0.776l-1.292-4.824c3.538-0.836,7.187-1.304,10.897-1.405V26.5h3v-4.966c3.711,0.102,7.359,0.569,10.897,1.405l-1.292,4.824   l2.897,0.776l1.293-4.828c3.523,1.045,6.919,2.462,10.149,4.214l-6.001,10.4c-5.055-2.688-10.632-4.295-16.445-4.71v3.009   c9.151,0.701,17.664,4.591,24.225,11.15l1.061,1.061l12.728-12.728L89.951,35.048z M78.266,44.612   c-1.938-1.806-4.021-3.405-6.221-4.79l5.997-10.394c3.094,1.911,6.017,4.142,8.713,6.694L78.266,44.612z M54.326,72.499   c-0.65-1.128-1.677-1.897-2.828-2.26l0.001-41.738h-3l-0.001,41.738c-0.341,0.108-0.678,0.245-1,0.432   c-2.393,1.379-3.211,4.436-1.832,6.828C46.592,79.104,48.272,80,50,80c0.849,0,1.709-0.216,2.496-0.671   C54.889,77.948,55.707,74.892,54.326,72.499z M50.995,76.731C50.687,76.91,50.352,77,50,77c-0.714,0-1.38-0.383-1.734-0.999   c-0.268-0.464-0.339-1.003-0.2-1.52c0.138-0.515,0.469-0.945,0.935-1.214c0.31-0.179,0.644-0.27,0.995-0.27   c0.713,0,1.377,0.384,1.732,1.001C52.279,74.954,51.951,76.18,50.995,76.731z"/></g><text x="0" y="115" fill="#000000" font-size="5px" font-weight="bold" font-family="'Helvetica Neue', Helvetica, Arial-Unicode, Arial, Sans-serif">Created by Alexander Wiefel</text><text x="0" y="120" fill="#000000" font-size="5px" font-weight="bold" font-family="'Helvetica Neue', Helvetica, Arial-Unicode, Arial, Sans-serif">from the Noun Project</text></svg>