<svg xmlns:dc="http://purl.org/dc/elements/1.1/" xmlns:cc="http://creativecommons.org/ns#" xmlns:rdf="http://www.w3.org/1999/02/22-rdf-syntax-ns#" xmlns:svg="http://www.w3.org/2000/svg" xmlns="http://www.w3.org/2000/svg" xmlns:sodipodi="http://sodipodi.sourceforge.net/DTD/sodipodi-0.dtd" xmlns:inkscape="http://www.inkscape.org/namespaces/inkscape" version="1.1" x="0px" y="0px" viewBox="0 0 100 125"><g transform="translate(0,-952.36218)"><path style="font-size:medium;font-style:normal;font-variant:normal;font-weight:normal;font-stretch:normal;text-indent:0;text-align:start;text-decoration:none;line-height:normal;letter-spacing:normal;word-spacing:normal;text-transform:none;direction:ltr;block-progression:tb;writing-mode:lr-tb;text-anchor:start;baseline-shift:baseline;opacity:1;color:#000000;fill:#000000;fill-opacity:1;stroke:none;stroke-width:4;marker:none;visibility:visible;display:inline;overflow:visible;enable-background:accumulate;font-family:Sans;-inkscape-font-specification:Sans" d="M 59 7 C 55.70998 7 53 9.70998 53 13 C 53 16.29002 55.70998 19 59 19 C 61.590258 19 63.824515 17.320137 64.65625 15 L 67 15 C 68.142591 15 69 15.8574 69 17 L 69 27 L 22 27 C 19.264594 27 17 29.26459 17 32 L 17 38 C 17 40.73541 19.264594 43 22 43 L 27.15625 43 L 33 91.25 A 2.0002 2.0002 0 0 0 35 93 L 65 93 A 2.0002 2.0002 0 0 0 67 91.25 L 72.84375 43 L 78 43 C 80.735406 43 83 40.73541 83 38 L 83 32 C 83 29.26459 80.735406 27 78 27 L 73 27 L 73 17 C 73 13.7106 70.289405 11 67 11 L 64.65625 11 C 63.824515 8.6798628 61.590258 7 59 7 z M 59 11 C 60.12826 11 61 11.87174 61 13 C 61 14.12826 60.12826 15 59 15 C 57.87174 15 57 14.12826 57 13 C 57 11.87174 57.87174 11 59 11 z M 22 31 L 78 31 C 78.588594 31 79 31.41141 79 32 L 79 38 C 79 38.58859 78.588594 39 78 39 L 22 39 C 21.411406 39 21 38.58859 21 38 L 21 32 C 21 31.41141 21.411406 31 22 31 z M 31.21875 43 L 68.78125 43 L 63.21875 89 L 36.78125 89 L 31.21875 43 z " transform="translate(0,952.36218)"/></g><text x="0" y="115" fill="#000000" font-size="5px" font-weight="bold" font-family="'Helvetica Neue', Helvetica, Arial-Unicode, Arial, Sans-serif">Created by pictohaven</text><text x="0" y="120" fill="#000000" font-size="5px" font-weight="bold" font-family="'Helvetica Neue', Helvetica, Arial-Unicode, Arial, Sans-serif">from the Noun Project</text></svg>